# xmcd
#
# Track frame offsets: 
#        150
#        11445
#        21685
#        33225
#        44420
#        57588
#        68013
#        79213
#        92300
#        100103
#        118343
#        132810
#
# Disc length: 1899 seconds
#
# Revision: 6
# Processed by: cddbd v1.5.2PL0 Copyright (c) Steve Scherf et al.
# Submitted via: ExactAudioCopy v1.0b6
#
DISCID=9b07690c
DTITLE=Three Hanks - Men With Broken Hearts
DYEAR=1996
DGENRE=Country
TTITLE0=I'll Never Get Out Of This World Alive
TTITLE1=Move It On Over
TTITLE2=Moanin' The Blues
TTITLE3=Never Again (Will I Knock On Your Door) 
TTITLE4=I'm A Long Gone Daddy
TTITLE5=Honky Tonk Blues
TTITLE6=I Won't Be Home No More 
TTITLE7='Neath A Cold Gray Tomb Of Stone 
TTITLE8=Where The Soul Of Man Never Dies
TTITLE9=Hand Me Down 
TTITLE10=Men With Broken Hearts 
TTITLE11=Lost Highway 
EXTD=ID3G: 2
EXTT0=
EXTT1=
EXTT2=
EXTT3=
EXTT4=
EXTT5=
EXTT6=
EXTT7=
EXTT8=
EXTT9=
EXTT10=
EXTT11=
PLAYORDER=
